<?xml version="1.0" encoding="UTF-8"?>
<svg id="Ebene_1" data-name="Ebene 1" xmlns="http://www.w3.org/2000/svg" xmlns:xlink="http://www.w3.org/1999/xlink" viewBox="0 0 339.334 315.7773">
  <defs>
    <style>
      .cls-1 {
        fill: url(#linear-gradient);
      }

      .cls-2, .cls-3, .cls-4 {
        stroke: #fff;
      }

      .cls-2, .cls-5 {
        fill: #fff;
      }

      .cls-3 {
        stroke-width: 3px;
      }

      .cls-3, .cls-4 {
        fill: none;
      }

      .cls-6 {
        fill: #e31f2f;
        stroke: #e31f2f;
        stroke-width: 2px;
      }
    </style>
    <linearGradient id="linear-gradient" x1="130.2998" y1="40.3296" x2="130.2998" y2="134.5225" gradientUnits="userSpaceOnUse">
      <stop offset="0" stop-color="#fff"/>
      <stop offset=".1051" stop-color="#fef9f9"/>
      <stop offset=".2394" stop-color="#fce9eb"/>
      <stop offset=".3895" stop-color="#f9cfd2"/>
      <stop offset=".5512" stop-color="#f4aab0"/>
      <stop offset=".7222" stop-color="#ee7b85"/>
      <stop offset=".8984" stop-color="#e74350"/>
      <stop offset="1" stop-color="#e31f2f"/>
    </linearGradient>
  </defs>
  <g id="Signet_ohne_Schrift" data-name="Signet ohne Schrift">
    <path id="_šusserer_Rand" data-name="šusserer Rand" class="cls-6" d="M338.334,284.7773c0,18-16.667,30-31.9141,30H33.9756c-19.7778,0-32.9756-12.6669-32.9756-28.6669V27.4438C1,16.1104,15.6665,1,28.3335,1h277.9995c17.334,0,32.001,11.7769,32.001,25.7769v258.0004Z"/>
    <path id="innerer_Rand" data-name="innerer Rand" class="cls-3" d="M327.667,277.0977c0,18.3457-9.334,29.6796-30.0928,29.6796H41.4775c-19.811,0-31.1245-9.3339-31.1245-28.4267V35.2041c0-17.7603,8.647-24.8574,25.6934-24.8574h261.3198c21.6338,0,29.3906,6.4302,29.3906,26.6738l.9102,240.0772Z"/>
    <g id="Mythen">
      <path id="Mythen_Hintergrund" data-name="Mythen Hintergrund" class="cls-1" d="M213.6328,80.4995l3.25.188s7.75,10.085,11.25,24.335c1.334,4.5,5.5,28.5,5.5,28.5l-206.666,1,4.3276-31.9952s1.875-6.3906,5.6724-12.0048c5.9165-8.167,8-19.25,8-19.25l2.667-.167,4.6665,5.25,3.3335-1.1665c0-6.2618,1.333-8.6665,1.333-12.3335l7.5293-7.1953,4.1377-.0547,3.6665,4.917h2.583l2.0146-7.8335,2.8296.228,5.8228,5.272s12.542,4.4057,15.9585,8.5415c3.75,9.1665,16.708,10.959,16.708,10.959l10.4214.4677,2.9951-3.8017,4-.1665,3.5835-1.5835,5.7085-.375,11.375-20.0415,6.125-1.2915,2.0415-5.625,3.0005-.3335,1.5005-4.4165,11.665-.1929s1,4.3594,5.668,9.8594c.625.6245,4.332.3335,4.332.3335l7.3731,13.2885c6.2617,0,11.7109-.0385,15.6269,5.0445v11.644Z"/>
      <g id="Mythenkonturen">
        <path id="Mythen_Hintergrund-2" data-name="Mythen Hintergrund" class="cls-4" d="M30.7998,102.3926s1.875-6.3906,5.6724-12.0049c5.9165-8.167,8-19.25,8-19.25l2.667-.167,4.6665,5.25,3.3335-1.1665c0-6.2617,1.333-8.6665,1.333-12.3335l7.5293-7.1953,4.1377-.0547,3.6665,4.917h2.583l2.0146-7.8335,2.8296.228,5.8228,5.272s12.542,4.4058,15.9585,8.5415c3.75,9.1665,16.708,10.959,16.708,10.959l10.4214.4678,2.9951-3.8018,4-.1665,3.5835-1.5835,5.7085-.375,11.375-20.0415,6.125-1.2915,2.0415-5.625,3.0005-.3335,1.5009-4.4165,11.6641-.1929s1,4.3594,5.668,9.8594c.625.6245,4.332.3335,4.332.3335l7.373,13.2886c6.2618,0,11.711-.0386,15.627,5.0444v11.644l3.25.188s7.75,10.085,11.25,24.335"/>
        <g>
          <path class="cls-4" d="M51.8057,76.2207l8.667,8.667"/>
          <path class="cls-4" d="M71.8057,60.3877c4.2685,4.2685,3.56,5.8384,6.5693,8.8477"/>
          <path class="cls-4" d="M77.25,86.3604c3.5928-3.5928,2.9072-6.5,6.5-6.5"/>
          <path class="cls-4" d="M83.75,79.8604v-3.75"/>
          <path class="cls-4" d="M83.75,76.1104h4.75"/>
          <path class="cls-4" d="M88.5,76.1104c2.25,6.2182,9.0156,6,12.125,12.125"/>
          <path class="cls-4" d="M160.75,71.1104c4,2.25,7.9995,3.9995,10.625,6.625"/>
          <path class="cls-4" d="M161.9307,50.7627c7.958,7.9585,11.5693,12.3477,30.0693,20.0977"/>
          <path class="cls-4" d="M192,69.8604c0,2.7636.5,5,.5,5"/>
          <path class="cls-4" d="M192,69.8604c2-3.418,5.5107-1,5.5107-6.1841"/>
          <path class="cls-4" d="M213.1377,80.3647c0,5.2457-3.7227,2.0811-3.7227,7.1607"/>
          <path class="cls-4" d="M185.8057,50.0542c0,5.5586-4.1563,13.1812-5.4307,13.1812"/>
        </g>
      </g>
    </g>
    <polygon id="Kreuz" class="cls-2" points="308.5361 51.1104 308.5361 56.9438 287 56.9438 286.875 79.7769 280.834 79.7769 280.834 56.9438 259 56.9438 259 51.1104 280.834 51.1104 280.834 29.1104 287 29.1104 287 51.1104 308.5361 51.1104"/>
  </g>
  <g id="Schriftzug">
    <path class="cls-5" d="M20.3564,188.2539c.8619,1.126,2.0528,3.0342,3.6128,3.0342,1.2725,0,2.7095-1.0762,3.1202-9.2969.6157-10.2734.9443-17.123,1.1084-24.8535l-5.6651-.5869,1.7236-1.6636h13.3428l-1.56,1.6636-2.0938.5869-.8213,18.4443c-.2051,4.9424-.3281,9.2969-2.6684,11.9385-2.4219,2.7393-6.6094,6.8984-10.2632,6.8984-.7798,0-2.1758-.6845-2.7505-1.0761l2.9145-5.0889Z"/>
    <path class="cls-5" d="M42.3613,172.3057c0-6.1651,1.8887-7.7793,3.2842-7.7793,1.8062,0,3.9409,2.1035,3.9409,8.5117,0,4.7949-.7383,8.4648-3.0376,8.4648-2.4634,0-4.1875-3.1806-4.1875-9.1972M51.9673,180.4746c1.0674-.5859,3.2026-3.8642,3.2026-10.1269,0-5.9688-2.7915-8.3663-6.1987-8.3663-2.792,0-7.7593,2.7891-9.8945,4.8438-1.8882,1.7119-2.2984,7.1435-2.2984,9.0508,0,4.4033,1.5186,8.7578,5.8291,8.7578,1.478,0,3.0791-.6846,4.3516-1.3701l5.0083-2.7891Z"/>
    <path class="cls-5" d="M92.3652,175.3379l2.5454-1.7119c2.2579-1.5664,3.4483-2.4463,4.2286-3.1807,1.2314-1.0762,2.0527-2.4951,2.0527-4.5498,0-2.4463-.9854-3.9141-3.2432-3.9141-1.8061,0-5.2553,1.9571-6.8564,2.7891-3.5713,1.8096-4.064,7.0938-4.064,11.0576,0,.9024.0552,1.7227.1572,2.4707-.851.4698-1.7265.8555-2.2919.8555-1.4781,0-2.3404-2.2022-2.3404-5.7725,0-3.9638.2876-7.4375.9029-14.58.124-1.419.2465-2.8872.3696-4.3057.2056-2.3482.3286-2.9351,1.1909-2.9351.9849,0,2.1348,1.0269,2.9556,1.5655l2.5044-3.229c-1.314-.587-2.1758-.8809-3.6949-.8809-.8623,0-1.56.2939-2.3808.8809-1.7246,1.2231-3.6953,2.4946-5.2139,4.1587-.8213.831-.9443,3.6689-1.0674,5.7719-.4658,7.7276-1.0781,15.4951-1.1435,17.9287-1.0518.627-2.4058,1.3975-3.0855,1.3975-1.3139,0-1.519-3.1797-1.519-5.8711,0-3.1797.5337-12.1826.7392-14.7754.4102-5.3813.6568-6.3599,1.8062-6.3599.4101,0,1.2725.147,2.0527.2935l1.1905.4404,2.2993-3.4248c-.9854-.2934-1.8067-.4404-2.833-.4404s-1.6831.2446-2.3809.7827c-2.2993,1.6636-4.6396,3.376-6.6924,5.48-.4922.5869-.6977,4.208-.9028,6.7021-.6157,0-1.2315,0-1.8477.1465-1.354.3428-5.583,3.7188-7.102,4.8926-1.5601,1.2227-1.9297,8.2686-1.9297,10.666,0,1.1739.082,2.7403.1645,3.2285.2466,1.0284.7393,2.4961.9849,2.8379.3286.5381.8623.8809,1.273.8809.3696,0,3.8588-2.251,5.4604-3.5713l2.3399-2.0059c.082,1.5166.4106,3.2784.8212,4.501.1231.4404.9444,1.0762,1.1495,1.0762.5336,0,1.6831-.7822,2.5454-1.3701l5.7387-3.9737c.459,1.4131,1.3819,3.6036,1.9795,4.708.2051.3428.9444.6358,1.1905.6358.4516,0,1.519-.4893,2.6274-1.419,1.5083-1.1142,3.0381-2.1767,4.4609-3.3027.9224,3.375,3.0845,4.7217,5.6387,4.7217.7388,0,2.0112-.293,2.3399-.4404.4926-.1954,2.3403-1.4678,7.4716-5.0391l.3282-1.6641c-1.7652,1.1748-4.3106,2.545-6.2398,2.545-2.6684,0-4.1055-1.419-4.6802-4.6973M66.7881,177.2461c-1.6011,1.5664-2.3394,1.9082-2.7915,1.9082-1.355,0-1.8882-2.4951-1.8882-5.3818,0-1.8106.082-3.6202.3281-5.4307.3697-2.5928.6573-3.2285,2.0122-3.2285.9439,0,1.9292.4394,2.8321.8799l-.4927,11.2529ZM91.8726,171.2285c0-3.9629,1.3955-6.7021,3.2026-6.7021,1.0674,0,1.7651,1.4179,1.7651,3.2285,0,1.2715-.4926,2.6904-1.7246,3.6689l-3.1201,2.3487c-.082-.8311-.123-1.7129-.123-2.544"/>
    <path class="cls-5" d="M115.3145,161.9814c-1.0679,0-2.8331,2.2022-4.1055,3.4737l-.7388.7832v-3.2295c-.2466-.3418-.6987-1.0274-.8218-1.0274-.164,0-1.5185.4893-2.1757.7832l-5.9527,2.8379-.2051,1.3204c.5337-.1963,2.1348-.3428,2.7505-.3428.4517,0,1.0674.2451,1.0674,1.6631,0,2.4961-.2876,6.2148-.5337,9.1992l-.5747,7.1914,5.624-1.957c.1231-3.5713.5342-12.1817.8623-14.7754.7803-.6358,1.7657-1.3213,2.5455-1.3213,1.2314,0,2.2583.9306,3.2026,1.8105l2.0112-5.7236c-.7798-.2451-2.0112-.6856-2.9555-.6856"/>
    <path class="cls-5" d="M183.834,161.9814c-1.6026,0-2.9151.6856-4.1065,1.6153l-2.792,2.1523.6172-7.4853c.4922-5.4307.9854-6.1158,2.2569-6.1158.6162,0,2.0117.147,3.4072.7339l2.2187-3.4741c-1.0273-.1465-2.0537-.3911-3.121-.3911-1.4375,0-1.8477.2939-3.4082,1.6143l-5.0899,4.3056c-.9023.7827-1.1494,1.5166-1.3144,3.8155l-1.2862,18.9316c-.6963.3818-2.5205,1.4707-3.2285,1.4707-1.1914,0-1.6016-1.7119-1.6016-4.4522,0-2.789.5752-8.4638,1.0264-12.7207l-5.706,1.5655-1.0274,13.3574c-.5337.9287-2.4634,2.25-3.6128,2.25-1.2314,0-1.7241-3.0342-1.7241-4.1094,0-.5869.1645-2.0556.2461-3.083l.7803-7.8769c.0415-.4883.0815-.9288.0815-1.418,0-.294-.5327-.6856-.8203-.6856-.4106,0-2.9976.9795-5.6245,2.251l-3.1611,1.5166-.1231,1.1739c.6157-.1465,1.231-.3428,1.8472-.3428,1.396,0,1.9292.7832,1.9292,2.2998,0,.8135-.4619,5.666-.6548,8.4814-1.1201.7539-2.8902,1.793-3.8198,1.793-1.4776,0-2.3399-2.2022-2.3399-5.7725,0-3.9638.2871-7.4375.9028-14.58.1231-1.419.2466-2.8872.3697-4.3057.2051-2.3482.3286-2.9351,1.1904-2.9351.9854,0,2.1348,1.0269,2.9561,1.5655l2.5044-3.229c-1.314-.587-2.1763-.8809-3.6949-.8809-.8623,0-1.56.2939-2.3813.8809-1.7241,1.2231-3.6948,2.4946-5.2134,4.1587-.8218.831-.9448,3.6689-1.0679,5.7719-.4624,7.6709-1.0693,15.3838-1.1421,17.8789l-.6235.3711c-.5747.3428-1.519.9287-2.3398.9287-.6158,0-1.232-.3418-1.7652-1.1738-.6572-1.0273-2.0122-3.5713-3.2846-6.1641,2.0937-1.5654,4.352-3.6201,4.352-6.165,0-2.4951-1.478-3.5225-3.3257-3.5225-1.478,0-3.4077,1.4678-4.5156,2.3487l-2.6274,2.1533.4101-6.0674c.4927-7.0937.9444-8.562,2.2993-8.562.8208,0,2.7505.8809,3.6128,1.1743l2.3809-3.1797c-1.2725-.3916-2.8735-.832-4.1875-.832-.5337,0-1.0674.2446-1.5186.5381l-3.1201,2.4463c-2.2993,1.81-4.2285,3.4736-4.311,4.8926l-1.8477,27.7402,5.2554-2.1524.5337-7.7294,1.8882-.4903,4.4751,9.3936c.123.2939,1.1079.9785,1.2724.9785.2056,0,.4927-.1465.9444-.4893l6.3247-4.8203c.4629,1.4141,1.3759,3.5791,1.9682,4.6738.2056.3428.9444.6358,1.1905.6358.4521,0,1.5195-.4893,2.6279-1.419,1.915-1.415,3.8638-2.748,5.584-4.2314,0,.0234-.0005.0508-.0005.0732,0,2.3487.7798,4.6485.9028,4.795.1646.1953.7393.7822,1.2725.7822.6977,0,2.2583-1.0762,4.229-2.544l4.3515-3.2294c.2867,1.8105.6983,4.6484.9034,4.9912.3291.538,1.1084.7822,1.2724.7822.2461,0,.8203-.2442,1.1914-.4893l7.2149-4.6982-.3594,5.2851c1.2715-.538,1.9297-1.0263,2.915-1.7119,1.8057,1.1739,2.75,1.6143,4.5166,1.6143.5332,0,1.2305-.0977,1.3545-.1465l6.2813-3.8164c1.6816-1.0273,2.832-6.5068,2.832-10.665,0-7.045-2.9971-8.0245-4.8027-8.0245M124.3462,173.0879l-.6983.2441.3287-5.1855,1.2314-.9297c1.1909-.9785,2.0112-1.5166,2.9561-1.5166,1.2724,0,1.6831.9785,1.6831,2.3486,0,3.0821-2.6685,3.9629-5.501,5.0391M180.6318,181.7969c-1.3564,0-3.7373-1.6641-4.3515-2.8379l.6142-11.3994c.9444-.833,2.0948-1.5664,3.3662-1.5664,1.7256,0,3.0391,1.1738,3.0391,7.3886,0,4.9405-1.1094,8.4151-2.668,8.4151"/>
    <path class="cls-5" d="M20.1421,266.7012l3.5718-6.0186.4511.3438c.4927,4.2558,3.4078,7.4365,6.897,7.4365,2.0527,0,4.1465-1.1748,4.1465-3.9141s-2.0117-3.8164-3.8589-4.6484l-3.0791-1.3203c-3.0786-1.2725-5.1313-3.7188-5.1313-7.5352,0-6.9961,5.8706-10.3711,9.8525-10.3711,3.4077,0,5.5835,1.5645,6.1582,4.8428l-3.7358,4.2568-.4927-.2939c-.1641-3.1807-1.314-6.5557-4.3926-6.5557-1.7656,0-3.2842,1.3701-3.2842,4.0606,0,2.9843,1.6831,4.207,3.8589,5.039l5.624,2.1524c2.1758.8818,3.5718,2.6426,3.5718,5.4804,0,6.0665-6.3633,11.6436-12.562,11.6436-2.9565,0-5.8301-1.2227-7.7183-4.2559l.1231-.3427Z"/>
    <path class="cls-5" d="M76.0571,265.4287c-1.437,0-1.6006-1.4678-1.6006-2.8379,0-2.2988.1636-4.5488.4512-9.8818.041-.7832.2051-2.6914.2051-2.9844,0-.6357-.6978-1.1738-1.0264-1.1738-.4926,0-5.501,2.0537-6.0346,2.2988l-4.7622,2.2998.6977-8.5625c.4522-5.5771,1.5601-5.8711,2.5864-5.8711,1.3955,0,2.71.4893,3.9825,1.0762l2.1757-3.5713c-.9448-.2939-2.4633-.6357-3.4482-.6357-1.5606,0-3.5723,1.3203-5.0908,2.3964-1.6831,1.1748-3.8589,2.7901-4.8033,4.1592-.7802,1.125-.9033,3.1319-.9853,4.8438l-.9971,17.2959c-1.8442,1.0488-4.4926,2.3232-6.5161,2.3232-3.8589,0-4.5566-3.7676-4.5566-7.7793,0-4.1103.6567-7.7305,2.7099-7.7305,1.8062,0,2.4629,3.1797,2.586,4.7959l.205.1944,3.7364-2.9844c-.3286-3.082-1.8477-4.5488-4.188-4.5488-1.1904,0-3.2432,1.1738-5.624,2.7383-2.5454,1.664-3.1206,2.4463-3.4077,3.3769-.7388,2.3477-1.1084,4.8926-1.1084,7.6319,0,4.8437,1.3144,8.9042,6.0761,8.9042.9854,0,2.2168-.2939,2.5454-.3906.2051-.0498,1.0259-.4902,1.7652-1.0283l5.6904-4.002-.3125,5.4209,5.2959-1.8105.9033-14.2363c2.0933-1.3213,3.5713-2.0059,4.7617-2.0059.9038,0,1.3965.4883,1.3965,1.6143,0,.3916-.0415,1.1738-.1235,2.25l-.2461,3.6211c-.1646,2.3476-.3696,4.1582-.3696,5.1367,0,1.6142.7802,4.5498,1.0268,4.7461.1231.0976.6978.6845,1.3135.6845.4517,0,.9849-.2441,1.6831-.7343l7.3076-4.9405.2461-1.664c-1.7656,1.0762-3.1611,1.5654-4.1465,1.5654"/>
    <path class="cls-5" d="M122.4067,248.5508l-4.5156,2.9844c1.2319,1.8095,2.4219,3.8154,2.4219,6.5068,0,1.3701-.2871,2.6406-.6973,3.8642-.5342,1.5665-1.3965,3.7676-2.2173,4.7461-.6157-3.5234-1.396-6.9472-2.2168-10.372-.6162-2.5449-1.4785-5.9688-2.0942-7.0938l-.9853-.6357c-1.5025.667-3.5123,1.8369-5.2715,2.8066-.4722-1.0137-1.1568-1.998-1.7891-2.8066l-4.8037,2.9346c1.6016,1.9082,2.5869,3.6699,2.5869,6.0664,0,2.9843-2.3813,6.0185-4.3105,8.6113-.8218-6.1152-1.7246-13.4541-1.9302-17.6123-1.5601.6357-3.3252,1.4668-4.228,2.1523l-5.0909,13.6983h-.082c-.3696-3.5713-.8213-7.1426-1.396-10.666l-.7392-4.5987c0-.0976-.6153-.5859-.8208-.5859-.2051,0-5.0494,2.7383-7.5948,4.3047v1.1259c.8213-.1474,1.5191-.2939,1.9707-.2939.9439,0,1.5601.2939,1.8882,1.3701.6572,2.2012.9854,4.3047,1.2319,6.4092l1.1084,9.7353,4.1055-1.6142c.5747-2.1045,1.231-4.1104,2.0112-6.1152l2.9151-7.6329h.082c.3696,2.6426.7388,5.2344,1.0679,7.877l.8613,7.4853,4.1875-1.4677c.8208-1.8594,1.0269-2.2989,2.2173-3.8653l3.6538-4.6474c1.4775-1.9082,3.4893-4.8438,3.4893-7.584,0-.1367-.0108-.2754-.0264-.415.8652.3076,1.437,1.2197,1.9561,2.9589.9848,3.083,1.8881,6.3116,2.6274,9.4922.6152,2.5938,1.6006,6.6045,1.6006,7.6807,0,.832-.4102,1.958-1.9702,4.5996-1.4781,2.4463-2.9151,3.9131-5.419,3.9131-1.6426,0-2.8735-.4883-3.3257-.6358l-2.3398,4.1592c.9443.1953,2.3398.4893,3.7768.4893,2.2583,0,3.7364-.4404,4.4751-1.0762.6568-.5879,2.0938-2.5439,3.6123-5.4805l9.771-18.7871c1.191-2.2988,2.504-5.4306,2.504-7.3867,0-2.3486-1.0674-3.5224-2.2579-4.5986"/>
    <path class="cls-5" d="M123.022,265.7227c3.5722-2.8868,7.7593-6.6045,11.167-10.3721-.3282,0-.6978.0488-1.0264.0488-.7388,0-3.6533-.7334-4.3926-.7334-1.8887,0-2.4634,1.0274-3.8589,3.7178l-.6572-.5869c.6978-2.4463,1.6831-4.8926,2.5039-7.1436.4932-1.3701.8218-1.7607,1.6426-1.7607.4927,0,2.1758.1963,2.9971.3428,1.9292.3417,4.187.9775,5.2544.9775,1.1088,0,1.9707-.1953,2.956-1.6621l.7798.5381c-1.1084,1.7607-2.1758,4.3545-3.8179,5.9687l-6.5273,6.4092c1.396.1455,3.4487,1.6621,5.1318,2.7881.9028.6357,1.7241,1.2724,2.9146,1.2724,1.396,0,2.7099-.9296,3.9004-1.6142v1.3691c-1.8067,1.8106-3.8594,3.5713-5.7481,4.9912-.9438.6846-1.3135.9287-1.9702.9287-.2871,0-.8623-.4404-1.478-1.0273-1.1494-1.0273-2.6275-2.2998-4.3516-3.376-.8618-.4892-1.6421-.7822-2.7915-.7822-.8213,0-1.7656.4404-2.6279,1.0762v-1.3701Z"/>
    <path class="cls-5" d="M26.437,201.9385c.0415-.5381.0415-1.0762.0825-1.5166l-4.3515-.5869,1.9292-1.6631h4.1875c5.5014,0,13.0551,0,16.5449-.7832.6562.9297,1.1904,1.9082,1.56,2.9843-.8217,1.0274-2.6274,2.9854-3.7358,3.9629l-.2466-.6357c-1.355-3.669-1.9707-3.8652-6.4868-3.8652-1.3955,0-2.5039.1464-3.4072.2929-.2461,3.4258-.5337,6.9971-.7798,10.5196l8.6211.2939v.2441c-.4512.4893-.6978.8321-1.2315,1.126-.4926.0479-1.9711.1465-3.7768.1465-1.2319,0-2.833.0977-3.7769.1953-.2465,4.1592-.6162,9.1973-.7392,12.4756,1.3955.0498,2.833.1465,4.2285.1465,4.9678,0,5.501-.8311,8.2109-5.625.6153-1.0762,1.4366-3.2305,2.4214-5.4307l1.479,1.5157c-.4927,2.0068-.9448,4.1093-1.3144,6.165l-1.0259,6.1152c-1.8067-.2939-4.9263-.4883-8.0469-.6357-3.1196-.0987-6.1987-.1465-8.0054-.1465h-8.6621l2.1348-1.958,2.709-.5859,1.478-22.751Z"/>
    <path class="cls-5" d="M98.0762,205.2656c-2.7915,0-7.7593,2.7891-9.8941,4.8438-1.8882,1.7119-2.2988,7.1426-2.2988,9.0508,0,.7548.0454,1.5078.1411,2.2373-1.0713.5087-1.959.747-2.646.747-1.4365,0-1.6011-1.4677-1.6011-2.8379,0-2.2988.1646-4.5488.4522-9.8818.0405-.7832.2051-2.6914.2051-2.9844,0-.6357-.6978-1.1748-1.0264-1.1748-.4927,0-5.5015,2.0547-6.0352,2.2998l-4.7622,2.2998.6983-8.5625c.4512-5.5771,1.5596-5.8711,2.5864-5.8711,1.3955,0,2.709.4893,3.9819,1.0762l2.1763-3.5713c-.9443-.2939-2.4634-.6357-3.4492-.6357-1.5596,0-3.5713,1.3203-5.0899,2.3965-1.684,1.1748-3.8598,2.79-4.8037,4.1601-.7797,1.124-.9033,3.1309-.9853,4.8428l-.9971,17.2959c-1.8437,1.0488-4.4922,2.3232-6.5156,2.3232-3.8589,0-4.5571-3.7675-4.5571-7.7793,0-4.1093.6567-7.7295,2.7094-7.7295,1.8067,0,2.4634,3.1788,2.5869,4.794l.2051.1953,3.7359-2.9844c-.3286-3.082-1.8477-4.5498-4.1875-4.5498-1.1905,0-3.2432,1.1748-5.6241,2.7393-2.5454,1.664-3.1201,2.4463-3.4077,3.376-.7387,2.3486-1.1084,4.8925-1.1084,7.6328,0,4.8437,1.3135,8.9043,6.0757,8.9043.9854,0,2.2168-.293,2.5454-.3907.2056-.0498,1.0264-.4902,1.7656-1.0283l5.6905-4.0029-.313,5.4219,5.2959-1.8106.9038-14.2363c2.0933-1.3213,3.5713-2.0059,4.7617-2.0059.9033,0,1.396.4883,1.396,1.6143,0,.3916-.041,1.1738-.123,2.25l-.2461,3.6211c-.1646,2.3476-.3697,4.1582-.3697,5.1367,0,1.6143.7798,4.5498,1.0259,4.7461.1231.0977.6978.6846,1.314.6846.4516,0,.9853-.2442,1.6831-.7344l6.3345-4.2822c.705,2.8349,2.3564,5.0166,5.4072,5.0166,1.478,0,3.0791-.6846,4.3516-1.3701l5.0087-2.7891c1.0674-.5859,3.2022-3.8643,3.2022-10.127,0-5.9687-2.7915-8.3662-6.1992-8.3662M95.6543,224.7871c-2.4634,0-4.1875-3.1807-4.1875-9.1973,0-6.165,1.8882-7.7793,3.2837-7.7793,1.8066,0,3.9419,2.1026,3.9419,8.5118,0,4.7949-.7393,8.4648-3.0381,8.4648"/>
    <path class="cls-5" d="M128.6201,205.2656c1.6841,1.3213,2.71,2.4951,2.71,4.9903,0,2.1533-.9029,4.1591-2.0938,5.7734-1.0263,1.4189-2.7505,3.6211-3.7768,5.0391-1.2315,1.664-2.3814,3.3759-3.3662,5.2353l-3.9004,1.6143-.7803-6.458c-.2051-1.5655-1.1079-9.002-2.0112-10.4707-.3286-.5381-1.0264-.8799-1.6421-.8799-.4927,0-1.1499.1465-1.8062.2441v-1.125c2.7915-1.5166,6.8555-3.7676,7.7178-3.9629.082,0,.9028.6846.9438.9297l1.273,9.3945c.3281,2.3965.5337,4.8428.7388,7.2393.9853-1.5645,2.1762-3.0322,3.1201-4.6475.6157-1.0761.9853-2.5439.9853-3.9619,0-2.6924-1.1084-4.3066-2.5454-5.9209l4.4336-3.0332Z"/>
    <path class="cls-5" d="M180.2646,222.4385c-1.2714,0-1.4755-2.2022-1.4755-3.1797,0-2.0068.039-3.4248.163-4.8438l.4512-6.1162c0-.4883.041-1.2715.041-1.8105,0-.4395-.6162-1.2227-.9853-1.2227-1.1895,0-5.8301,3.083-9.4824,5.2354l.165-2.4463c.0391-.3916.0391-1.4199.0391-1.7119,0-.3428-.5323-1.0772-.8623-1.0772-1.0674,0-4.1045,1.8106-6.4444,3.2295l-3.3662,2.0059c.0816-1.5166.0816-2.9844.0816-4.501-.1226-.3916-.5332-.7344-.6153-.7344-.2876,0-2.8325.8311-8.7036,3.5235v1.0088c-.9463-3.1856-3.1533-4.5323-5.7065-4.5323-2.792,0-7.7593,2.7891-9.8941,4.8438-1.8886,1.7119-2.2993,7.1426-2.2993,9.0508,0,4.4033,1.519,8.7578,5.8296,8.7578,1.478,0,3.0791-.6846,4.3516-1.3701l5.0087-2.7891c1.0674-.5859,3.2022-3.8643,3.2022-10.127,0-1.4062-.1567-2.6113-.438-3.6357.6543-.1934,1.5684-.4248,2.3682-.4248.8213,0,1.3139.4404,1.3139,1.3701,0,.6357,0,1.2715-.041,2.6904l-.7392,14.2862,5.2548-1.8106.9029-13.6494c1.0678-.6846,3.0786-2.0068,3.8178-2.0068,1.1905,0,1.3965.7842,1.3965,1.9082,0,.2939-.041.6855-.082,1.4199l-.9453,14.1387,5.4609-1.6631.8203-13.7969c.8204-.5869,2.4639-2.0068,3.4903-2.0068,1.1894,0,1.3545.8818,1.3545,2.8867,0,.832-.083,2.6914-.2452,5.1865-.124,1.7617-.248,3.5225-.248,5.2344,0,1.126.2061,2.0068.3281,2.3486.2471.6856,1.4785,1.8106,1.9297,1.8106.6983,0,1.6426-.7823,2.2178-1.1748l6.3223-4.6963v-1.419c-.7393.4405-2.9971,1.8106-3.7374,1.8106M141.1416,224.7871c-2.4634,0-4.188-3.1807-4.188-9.1973,0-6.165,1.8892-7.7793,3.2847-7.7793,1.8061,0,3.9414,2.1026,3.9414,8.5118,0,4.7949-.7393,8.4648-3.0381,8.4648"/>
    <path class="cls-5" d="M189.585,227.2334l1.1914-1.3701,3.4902-.5879,1.7647-16.4863c.082-1.0284.4511-5.1387.4511-6.1162,0-1.7608-1.3135-2.2012-3.6943-2.4463l-1.8877-.1954,1.1064-1.2724c3.1211-.3428,8.7032-1.0772,9.3614-1.0772.4922,0,.8613.4903.9853,1.0284,1.5195,6.8007,3.9824,13.6015,5.9942,20.4023,3.4082-6.8008,6.9375-13.5537,9.7695-20.9404h10.1816l-1.7646,1.8593-3.1211.587c-1.0654,6.3105-1.3955,12.7695-1.3955,19.1787,0,4.8427.4101,5.2842,3.2431,5.2842h2.793l-.6992,1.3691c-2.832.7832-9.6065,1.5654-10.1397,1.5654-.3281,0-1.0273-.5381-1.0273-.8799,0-7.7793.165-15.5097,1.1504-23.1914h-.082c-3.1602,7.2911-6.8975,14.3838-9.1553,22.2608l-3.5723,1.4199c-1.9687-7.9268-4.5556-15.6074-6.8135-23.4355h-.082c-.2471,5.4306-.8623,15.0205-.8623,16.5371,0,1.956,0,3.8642.2041,4.5488l4.2695.5879-.9853,1.3701h-10.6738Z"/>
    <path class="cls-5" d="M258.4746,221.3125c-.9853.4404-3.0391,1.4687-3.8203,1.4687-1.8057,0-2.75-3.4248-2.75-5.333,0-1.5166.165-5.039.4521-7.5351h3.2442c.9033,0,1.5996-.9785,2.1748-1.9561h-5.2549l.8213-9.0517-5.4199,2.2998-.7383,6.7519h-3.1231c-.3964-1.1728-1.1542-1.955-1.9667-2.6914l-4.5167,2.9854c1.2315,1.8095,2.4229,3.8144,2.4229,6.5068,0,1.3701-.2871,2.6416-.6992,3.8643-.5322,1.5664-1.3955,3.7666-2.2158,4.7461-.6162-3.5235-1.3955-6.9483-2.2159-10.3721-.6171-2.5449-1.4785-5.9688-2.0947-7.0938l-.9853-.6367c-2.0948.9297-5.1729,2.8379-7.1846,3.8155l-.1231,1.1259c.6163-.2441,1.1915-.3916,1.8467-.3916,1.3155,0,2.0528.8819,2.711,3.0821.9853,3.083,1.8877,6.3125,2.6259,9.4912.6163,2.5937,1.6016,6.6054,1.6016,7.6816,0,.832-.4102,1.958-1.9707,4.5996-1.4775,2.4463-2.915,3.9131-5.4189,3.9131-1.6416,0-2.8741-.4883-3.3252-.6357l-2.3399,4.1582c.9444.1963,2.3399.4902,3.7764.4902,2.2597,0,3.7373-.4404,4.4756-1.0762.6572-.5879,2.0947-2.5449,3.6132-5.4804l9.7696-18.7871c1.1816-2.2803,2.4814-5.378,2.5029-7.3389h2.669c-.1622,2.8867-.6963,7.3389-.6963,10.1767,0,3.7188,1.6816,6.6534,1.9707,7.0459.1631.2442,1.1074.7823,1.4775.7823.3281,0,2.792-1.2725,7.0195-4.0606l1.5606-1.0283.124-1.5166Z"/>
    <path class="cls-5" d="M315.0039,222.1445c-1.5586,0-1.9707-2.25-1.9707-3.8642,0-1.3223.082-2.5938.2061-3.9141l.4101-5.4316c.082-.7823.1231-1.5655.1231-2.3965,0-.3916-.7393-1.2725-1.1914-1.2725-.8204,0-2.7081,1.0274-4.4317,2.1035l-5.7471,3.5723c.1211-1.4678.2041-2.9844.2041-4.4531,0-.8311-.4521-1.2227-.7793-1.2227-.4521,0-3.2841,1.4678-6.7744,3.0332l-1.2382.6123c-.0733-2.2832-1.0645-3.6455-3.2374-3.6455-1.8056,0-5.2539,1.9571-6.8564,2.7891-3.5703,1.8105-4.0625,7.0937-4.0625,11.0576,0,.8291.0449,1.5908.1309,2.29-1.0674.5049-1.9512.7422-2.6358.7422-1.4365,0-1.6015-1.4677-1.6015-2.8379,0-2.2988.165-4.5488.4511-9.8818.041-.7832.2061-2.6914.2061-2.9844,0-.6357-.6983-1.1748-1.0264-1.1748-.4931,0-5.5019,2.0547-6.0361,2.2998l-4.7617,2.2998.6982-8.5625c.4522-5.5771,1.5606-5.8711,2.5879-5.8711,1.3955,0,2.708.4893,3.9805,1.0762l2.1767-3.5713c-.9443-.2939-2.4638-.6357-3.4492-.6357-1.5605,0-3.5723,1.3203-5.0918,2.3965-1.6816,1.1748-3.8584,2.79-4.8027,4.1601-.7793,1.124-.9033,3.1309-.9854,4.8428l-1.3955,24.2178,5.2959-1.8106.9024-14.2363c2.0947-1.3213,3.5732-2.0059,4.7646-2.0059.9024,0,1.3955.4883,1.3955,1.6143,0,.3916-.041,1.1738-.124,2.25l-.2471,3.6211c-.1631,2.3476-.3691,4.1582-.3691,5.1367,0,1.6143.7812,4.5498,1.0263,4.7461.1241.0977.6993.6846,1.3135.6846.4512,0,.9854-.2442,1.6846-.7344l6.3184-4.2715c.8769,3.582,3.0849,5.0059,5.7099,5.0059.7402,0,2.0117-.293,2.3399-.4405.4921-.1963,2.3398-1.4677,7.4726-5.039l.3281-1.6641c-1.7646,1.1748-4.3105,2.5449-6.2402,2.5449-2.6699,0-4.1045-1.4189-4.6797-4.6972l2.544-1.7119c2.2588-1.5665,3.4482-2.4463,4.2295-3.1807,1.0293-.8994,1.7705-2.041,1.9873-3.5908.5507-.1328,1.1416-.2735,1.831-.2735.9854,0,1.4365.586,1.4365,1.7608,0,1.4677-.206,4.7461-.3691,7.0937l-.6162,9.1983,5.459-1.8106.8633-13.3564c1.8886-1.3203,3.3251-2.2998,4.4326-2.2998.7812,0,1.1914.5381,1.1914,1.4199,0,1.8105-.5342,8.415-.5342,11.4971,0,1.4668.3691,3.375.8623,3.7675.5332.3916.9434.7823,1.3955.7823.6572,0,1.6016-.6846,2.793-1.4678l6.1162-4.207v-1.6641c-1.3545.7832-2.6279,1.5654-3.6133,1.5654M287.7451,214.708l-3.1191,2.3486c-.0821-.831-.124-1.7129-.124-2.5449,0-3.9619,1.3955-6.7012,3.2021-6.7012,1.0674,0,1.7647,1.418,1.7647,3.2286,0,1.2724-.4913,2.6904-1.7237,3.6689"/>
  </g>
</svg>